<svg id="visual" viewBox="0 0 960 150" width="960" height="150" xmlns="http://www.w3.org/2000/svg" xmlns:xlink="http://www.w3.org/1999/xlink" version="1.1"><rect x="0" y="0" width="960" height="150" fill="#000000"></rect><path d="M0 43L22.8 47.2C45.7 51.3 91.3 59.7 137 57.2C182.7 54.7 228.3 41.3 274 39.3C319.7 37.3 365.3 46.7 411.2 46C457 45.3 503 34.7 548.8 30.2C594.7 25.7 640.3 27.3 686 31.8C731.7 36.3 777.3 43.7 823 48.8C868.7 54 914.3 57 937.2 58.5L960 60L960 151L937.2 151C914.3 151 868.7 151 823 151C777.3 151 731.7 151 686 151C640.3 151 594.7 151 548.8 151C503 151 457 151 411.2 151C365.3 151 319.7 151 274 151C228.3 151 182.7 151 137 151C91.3 151 45.7 151 22.8 151L0 151Z" fill="#facc15"></path><path d="M0 53L22.8 57.7C45.7 62.3 91.3 71.7 137 74.7C182.7 77.7 228.3 74.3 274 70C319.7 65.7 365.3 60.3 411.2 59.5C457 58.7 503 62.3 548.8 66.2C594.7 70 640.3 74 686 77.5C731.7 81 777.3 84 823 80.2C868.7 76.3 914.3 65.7 937.2 60.3L960 55L960 151L937.2 151C914.3 151 868.7 151 823 151C777.3 151 731.7 151 686 151C640.3 151 594.7 151 548.8 151C503 151 457 151 411.2 151C365.3 151 319.7 151 274 151C228.3 151 182.7 151 137 151C91.3 151 45.7 151 22.8 151L0 151Z" fill="#ffa646"></path><path d="M0 102L22.8 99.8C45.7 97.7 91.3 93.3 137 89.3C182.7 85.3 228.3 81.7 274 78.2C319.7 74.7 365.3 71.3 411.2 75.3C457 79.3 503 90.7 548.8 93.7C594.7 96.7 640.3 91.3 686 88.8C731.7 86.3 777.3 86.7 823 85.7C868.7 84.7 914.3 82.3 937.2 81.2L960 80L960 151L937.2 151C914.3 151 868.7 151 823 151C777.3 151 731.7 151 686 151C640.3 151 594.7 151 548.8 151C503 151 457 151 411.2 151C365.3 151 319.7 151 274 151C228.3 151 182.7 151 137 151C91.3 151 45.7 151 22.8 151L0 151Z" fill="#ff896a"></path><path d="M0 113L22.8 111.2C45.7 109.3 91.3 105.7 137 105.7C182.7 105.7 228.3 109.3 274 108.3C319.7 107.3 365.3 101.7 411.2 101.5C457 101.3 503 106.7 548.8 108.5C594.7 110.3 640.3 108.7 686 106.5C731.7 104.3 777.3 101.7 823 103C868.7 104.3 914.3 109.7 937.2 112.3L960 115L960 151L937.2 151C914.3 151 868.7 151 823 151C777.3 151 731.7 151 686 151C640.3 151 594.7 151 548.8 151C503 151 457 151 411.2 151C365.3 151 319.7 151 274 151C228.3 151 182.7 151 137 151C91.3 151 45.7 151 22.8 151L0 151Z" fill="#ff778d"></path><path d="M0 125L22.8 125.3C45.7 125.7 91.3 126.3 137 124.3C182.7 122.3 228.3 117.7 274 115.5C319.7 113.3 365.3 113.7 411.2 114.2C457 114.7 503 115.3 548.8 116.3C594.7 117.3 640.3 118.7 686 119.5C731.7 120.3 777.3 120.7 823 123.3C868.7 126 914.3 131 937.2 133.5L960 136L960 151L937.2 151C914.3 151 868.7 151 823 151C777.3 151 731.7 151 686 151C640.3 151 594.7 151 548.8 151C503 151 457 151 411.2 151C365.3 151 319.7 151 274 151C228.3 151 182.7 151 137 151C91.3 151 45.7 151 22.8 151L0 151Z" fill="#f472b6"></path></svg>