<svg id="visual" viewBox="0 0 960 150" width="960" height="150" xmlns="http://www.w3.org/2000/svg" xmlns:xlink="http://www.w3.org/1999/xlink" version="1.1"><rect x="0" y="0" width="960" height="150" fill="#c084fc"></rect><path d="M0 123L22.8 121.8C45.7 120.7 91.3 118.3 137 111.7C182.7 105 228.3 94 274 87.3C319.7 80.7 365.3 78.3 411.2 84C457 89.7 503 103.3 548.8 103.8C594.7 104.3 640.3 91.7 686 86.2C731.7 80.7 777.3 82.3 823 85.8C868.7 89.3 914.3 94.7 937.2 97.3L960 100L960 0L937.2 0C914.3 0 868.7 0 823 0C777.3 0 731.7 0 686 0C640.3 0 594.7 0 548.8 0C503 0 457 0 411.2 0C365.3 0 319.7 0 274 0C228.3 0 182.7 0 137 0C91.3 0 45.7 0 22.8 0L0 0Z" fill="#facc15"></path><path d="M0 65L22.8 70.8C45.7 76.7 91.3 88.3 137 90.7C182.7 93 228.3 86 274 80.5C319.7 75 365.3 71 411.2 68.8C457 66.7 503 66.3 548.8 67.3C594.7 68.3 640.3 70.7 686 71.3C731.7 72 777.3 71 823 70C868.7 69 914.3 68 937.2 67.5L960 67L960 0L937.2 0C914.3 0 868.7 0 823 0C777.3 0 731.7 0 686 0C640.3 0 594.7 0 548.8 0C503 0 457 0 411.2 0C365.3 0 319.7 0 274 0C228.3 0 182.7 0 137 0C91.3 0 45.7 0 22.8 0L0 0Z" fill="#ffa646"></path><path d="M0 72L22.8 71.2C45.7 70.3 91.3 68.7 137 68.3C182.7 68 228.3 69 274 65.7C319.7 62.3 365.3 54.7 411.2 55C457 55.3 503 63.7 548.8 65.5C594.7 67.3 640.3 62.7 686 63C731.7 63.3 777.3 68.7 823 71.8C868.7 75 914.3 76 937.2 76.5L960 77L960 0L937.2 0C914.3 0 868.7 0 823 0C777.3 0 731.7 0 686 0C640.3 0 594.7 0 548.8 0C503 0 457 0 411.2 0C365.3 0 319.7 0 274 0C228.3 0 182.7 0 137 0C91.3 0 45.7 0 22.8 0L0 0Z" fill="#ff896a"></path><path d="M0 31L22.8 34.8C45.7 38.7 91.3 46.3 137 46.3C182.7 46.3 228.3 38.7 274 38.3C319.7 38 365.3 45 411.2 46.2C457 47.3 503 42.7 548.8 39.8C594.7 37 640.3 36 686 36.3C731.7 36.7 777.3 38.3 823 40.3C868.7 42.3 914.3 44.7 937.2 45.8L960 47L960 0L937.2 0C914.3 0 868.7 0 823 0C777.3 0 731.7 0 686 0C640.3 0 594.7 0 548.8 0C503 0 457 0 411.2 0C365.3 0 319.7 0 274 0C228.3 0 182.7 0 137 0C91.3 0 45.7 0 22.8 0L0 0Z" fill="#ff778d"></path><path d="M0 14L22.8 16.3C45.7 18.7 91.3 23.3 137 23.5C182.7 23.7 228.3 19.3 274 20.5C319.7 21.7 365.3 28.3 411.2 30.7C457 33 503 31 548.8 27.3C594.7 23.7 640.3 18.3 686 19.5C731.7 20.7 777.3 28.3 823 29C868.7 29.7 914.3 23.3 937.2 20.2L960 17L960 0L937.2 0C914.3 0 868.7 0 823 0C777.3 0 731.7 0 686 0C640.3 0 594.7 0 548.8 0C503 0 457 0 411.2 0C365.3 0 319.7 0 274 0C228.3 0 182.7 0 137 0C91.3 0 45.7 0 22.8 0L0 0Z" fill="#f472b6"></path></svg>